<svg id="Layer_1" data-name="Layer 1" xmlns="http://www.w3.org/2000/svg" viewBox="0 0 797.47 671.13"><defs><style>.cls-1{fill:#3d60ac;}</style></defs><path class="cls-1" d="M799.55,410,804,455.4c2.68,27.61,21.5,49.4,45.34,52.5L888.54,513l-39.23,5.11c-23.84,3.1-42.66,24.89-45.34,52.5L799.55,616l-4.41-45.4c-2.69-27.61-21.51-49.4-45.35-52.5L710.56,513l39.23-5.12c23.84-3.1,42.66-24.89,45.35-52.5Z" transform="translate(-101.26 -164.44)"/><path class="cls-1" d="M226.15,202.66c-10.47-1.68-19.27,5.45-19.27,16.34,0,17.61,50.71,158.43,60.77,186.51C258,435.68,249.2,465.86,239.57,496h-8.8c-29.76-77.53-54.91-156.74-83-235.11-7.54-21.8-18-58.26-46.52-58.26Zm112.32,0c23.47,70,46.52,140.4,71.67,210-8,28.08-17.6,55.32-25.56,83.4h-8.81L301.59,290.67c6.29-30.17,18.44-58.67,27.24-88Zm173.09,0c-30.59,5.45-53.22,47.36-61.19,74.6a102.79,102.79,0,0,0,2.94-25.15c0-17.6-2.52-49.45-26.41-49.45Z" transform="translate(-101.26 -164.44)"/><path class="cls-1" d="M487.08,377.72c0,15.09,3.77,41.91,23.89,41.91H426.73c33.53-6.7,52.39-41.07,63.7-70.41A129.58,129.58,0,0,0,487.08,377.72Zm82.56-175.4h8.8c31.86,77.11,58.26,156.74,88,234.69,8,20.54,19.27,58.68,46.52,58.68H595.63c9.22,2.09,17.6-3.36,17.6-13.41,0-18.44-59.09-179.8-70.83-205.36C551.2,251.77,560,227,569.64,202.32Z" transform="translate(-101.26 -164.44)"/><path class="cls-1" d="M712.9,376.13c0,40.23,28.92,88,71.67,92.62-18-2.1-34.79-10.06-53.23-10.06-13,0-18.44,9.64-18.44,21.79ZM765,221.51c0,67.06,133.7,71.25,133.7,161.78,0,55.32-39,78.79-88.85,85.91h-1.26c22.63-3.35,32.69-22.63,32.69-43.58,0-76.7-130.76-74.18-130.76-167.22,0-49,37.3-78,83.82-81.31C773,180.44,765,202.66,765,221.51ZM883.9,164.44V268.79c0-40.23-22.64-88.43-67.06-93,18,1.26,33.95,12.58,52,12.58C882.22,188.33,883.9,174.91,883.9,164.44Z" transform="translate(-101.26 -164.44)"/><path class="cls-1" d="M132.82,731.21c0,40.23,28.92,88,71.67,92.62-18-2.1-34.79-10.06-53.23-10.06-13,0-18.44,9.64-18.44,21.79ZM189.4,576.14c0,67.05,133.7,71.25,133.7,161.77,0,55.32-39,78.79-88.85,85.92H233c22.63-3.36,32.69-22.63,32.69-43.59,0-76.69-130.76-74.18-130.76-167.22,0-49,37.3-77.95,83.82-81.31C197.37,535.07,189.4,557.28,189.4,576.14Zm114.42-55.32V625.17c0-40.23-22.63-88.43-67.06-93,18,1.26,33.95,12.58,52,12.58C302.14,544.71,303.82,531.29,303.82,520.82Z" transform="translate(-101.26 -164.44)"/><path class="cls-1" d="M504.9,531.5c-23.47,0-24.73,23.89-24.73,41.5V677.35c8.38,3.78,17.6,4.19,26.83,4.61-9.23.42-18.45.84-26.83,4.61v97.65c0,17.19,2.52,40.66,24.73,40.66H393.84c24.3,0,25.14-24.73,25.14-43.17v-207c0-17.6-1.67-43.17-25.14-43.17Zm83.4,36c0-17.19-3.35-36-24.73-36H674.64c-23.89,0-24.73,25.57-24.73,43.17v207c0,17.6.84,43.17,24.73,43.17H563.57c23,0,24.73-22.64,24.73-40.24V686.57a91.67,91.67,0,0,0-26-4.61c8.8,0,18-.83,26-4.61Z" transform="translate(-101.26 -164.44)"/><path class="cls-1" d="M769.79,790.72V685.11c0-17.61,0-51.13-25.14-51.13h90.94c-6.28,7.12-6.28,54.9-6.28,66.63v89.27c0,18.86.83,39,25.14,39H744.65C768.12,828.86,769.79,809.16,769.79,790.72Z" transform="translate(-101.26 -164.44)"/></svg>